PathFileType	4	(X/Y/Z)	/Users/visionmauri/1_1_1_f_Sports2D/1_1_1_f_Sports2D_m_person00.trc
DataRate	CameraRate	NumFrames	NumMarkers	Units	OrigDataRate	OrigDataStartFrame	OrigNumFrames
30.0	30.0	10	22	m	30.0	44	358
Frame#	Time	Hip			RHip			RKnee			RAnkle			RBigToe			RSmallToe			RHeel			LHip			LKnee			LAnkle			LBigToe			LSmallToe			LHeel			Neck			Head			Nose			RShoulder			RElbow			RWrist			LShoulder			LElbow			LWrist			
		X1	Y1	Z1	X2	Y2	Z2	X3	Y3	Z3	X4	Y4	Z4	X5	Y5	Z5	X6	Y6	Z6	X7	Y7	Z7	X8	Y8	Z8	X9	Y9	Z9	X10	Y10	Z10	X11	Y11	Z11	X12	Y12	Z12	X13	Y13	Z13	X14	Y14	Z14	X15	Y15	Z15	X16	Y16	Z16	X17	Y17	Z17	X18	Y18	Z18	X19	Y19	Z19	X20	Y20	Z20	X21	Y21	Z21	X22	Y22	Z22
44	1.4707749766573295	0.6874775286048405	0.8512882521940076	0.0301	0.804219242099229	0.8755390830438025	0.0301	0.9813489677303693	0.3829677065811665	0.129	1.1215870533928536	-0.06843763946074369	0.023	1.0966884936781445	-0.1353809883655881	0.2179	1.1825385582052308	-0.12415028572994359	0.1804	1.1432065434533831	-0.14280641155170928	-0.0119	0.583559582542493	0.8008547831861509	0.0301	0.6976291106116826	0.45472098882447004	0.129	0.7194558510592398	0.3683224403312368	0.023	0.8797181601609589	0.04328571722643251	0.2179	0.8212242704886631	0.010941412149340305	0.1804	0.7873980445113369	0.23267845440968832	-0.0119	0.45529165279302874	1.4356876720582148	0.0008	0.3745629669458862	1.6221687380247132	0.0655	0.4222385857770777	1.4906068186111796	0.1076	0.6743433170759798	1.462171319245497	-0.01275	0.9038981458017514	1.2599549737523725	0.0702	1.034626466036369	0.9911385892211961	0.1076	0.2916642640871828	1.3028172388566441	-0.01275	0.3290218326494803	0.9552307986717892	0.0702	0.3441922011162302	0.9326993825111818	0.1076
45	1.504201680672269	0.687559664697292	0.8526988263211391	0.0301	0.8045850898477201	0.873999199477602	0.0301	0.980605663937824	0.3815141286269245	0.129	1.1215778908505152	-0.06839461993760927	0.023	1.0948858452004562	-0.12801430302346373	0.2179	1.1869378705007105	-0.11889485208021731	0.1804	1.1448223166207168	-0.14373598290885878	-0.0119	0.5842576808224784	0.7995879024412023	0.0301	0.6945460477728965	0.459632291499174	0.129	0.7617743379814179	0.2518220213387678	0.023	0.951047446952249	-0.12780989771973128	0.2179	0.8815479563828924	-0.14599890445508126	0.1804	0.863807625783121	0.03983914117163892	-0.0119	0.4568199877943679	1.4372673996404217	0.0008	0.37442987990577725	1.6198341120759916	0.0655	0.41975465450657384	1.489775506973485	0.1076	0.6755332505791966	1.4609853017086167	-0.01275	0.9069009282136227	1.2530293713221787	0.0702	1.0318212122751318	0.9920051425358396	0.1076	0.2940937547299542	1.3025967289984206	-0.01275	0.3285386760505231	0.9543604221311732	0.0702	0.34848030689509385	0.9296952407884372	0.1076
46	1.537628384687208	0.6878208276127573	0.8558083895283727	0.0301	0.8061674152187183	0.873420489287746	0.0301	0.9791246431267299	0.38065549107499774	0.129	1.1220242011597843	-0.06819447576519769	0.023	1.095383153265114	-0.12227465787222529	0.2179	1.193406802215843	-0.11614172681868212	0.1804	1.1455677077220867	-0.14045130679761111	-0.0119	0.5837333813898288	0.8004887301036077	0.0301	0.6917301077896876	0.4612638954947521	0.129	0.8149764039984579	0.11292810708296161	0.023	0.9628398721040489	-0.15912374042711594	0.2179	0.8922003529846604	-0.1710517633893869	0.1804	0.9064694970060115	-0.06834103791982661	-0.0119	0.45805966238134804	1.4392047684619083	0.0008	0.3746096204973424	1.6169372362222436	0.0655	0.4195123636689398	1.4896301738674442	0.1076	0.6762918308769915	1.4584468716862817	-0.01275	0.9099147170188047	1.2455803272079389	0.0702	1.027671277302875	0.9944877749403765	0.1076	0.2964894980322299	1.302753153810522	-0.01275	0.32780186562784464	0.9533790522344869	0.0702	0.3535370622812053	0.9272115226912094	0.1076
47	1.5710550887021475	0.6882221055228097	0.8582353956570323	0.0301	0.8073007566939565	0.872734781226094	0.0301	0.976768806498391	0.3803261572981448	0.129	1.1220678387417065	-0.06825431623228378	0.023	1.0976962889537787	-0.11891591023756576	0.2179	1.199000037999918	-0.11383586571387722	0.1804	1.1449137636257223	-0.13607353337317357	-0.0119	0.5823152036888108	0.8027295060906342	0.0301	0.6897025610732648	0.46031843845600945	0.129	0.8501744130856661	0.02097091617750733	0.023	0.9468189249326707	-0.12647600343475293	0.2179	0.8817017997439993	-0.14668517473666776	0.1804	0.9094224609690489	-0.0803013197474774	-0.0119	0.4585583719108145	1.439974804868977	0.0008	0.37398879229108484	1.6153516324345891	0.0655	0.42058349131264583	1.489794416497761	0.1076	0.6778309663499805	1.456076054367656	-0.01275	0.9126973322963673	1.23877483527853	0.0702	1.022081754926918	0.9953890398916693	0.1076	0.29773462822559643	1.3030857242644363	-0.01275	0.3269971382005079	0.9546060114234147	0.0702	0.3562855655983678	0.9269313204491435	0.1076
48	1.604481792717087	0.687475754174298	0.8575508061423118	0.0301	0.8061622091640631	0.8705372434359666	0.0301	0.9752204945299896	0.38025526599604426	0.129	1.1211975275301844	-0.06821953571032158	0.023	1.1004412497431189	-0.11454120630406925	0.2179	1.2014442655955389	-0.11005942376956782	0.1804	1.143151370883185	-0.133061002769774	-0.0119	0.5807765956609264	0.8021986817943111	0.0301	0.6891449066380452	0.4587520630282002	0.129	0.860634036216952	-0.0017570717612567148	0.023	0.9334290414936476	-0.10133562635201077	0.2179	0.8731062391031172	-0.1308179992177208	0.1804	0.9014543085631477	-0.0631290926810669	-0.0119	0.45819506270433397	1.4390452718244413	0.0008	0.37344148825220796	1.615272505408348	0.0655	0.4211684402360637	1.4905745900553908	0.1076	0.6793561568888788	1.4537766620211232	-0.01275	0.9158678070374647	1.231597702237626	0.0702	1.0157362106605676	0.99073765523961	0.1076	0.29780241271185925	1.3018154931517767	-0.01275	0.32713756868360755	0.9563402507550878	0.0702	0.3563821471918477	0.9289050518678282	0.1076
49	1.637908496732026	0.685569492562784	0.8545199670872581	0.0301	0.8033482750814844	0.8678188700573592	0.0301	0.9750160495837937	0.38059529215299054	0.129	1.1198335825349293	-0.06814471891005738	0.023	1.1032984499346548	-0.10979322321646964	0.2179	1.2019351677712955	-0.1077791353241925	0.1804	1.1412080755043341	-0.13239745754930227	-0.0119	0.5794423478806383	0.7987212203787253	0.0301	0.6908611106030013	0.45717384666626	0.129	0.8620879278259325	0.014810126654627541	0.023	0.9288322443072284	-0.09589603835522978	0.2179	0.866958054150428	-0.12299141284271446	0.1804	0.898708138775302	-0.04894216169939891	-0.0119	0.4576951271764423	1.437386285838304	0.0008	0.37396947702471645	1.6153797232442197	0.0655	0.4209384685604765	1.4921122982971637	0.1076	0.6806176200311735	1.450693067561812	-0.01275	0.9191090811544123	1.22370236646383	0.0702	1.0103590795497372	0.9816305881081379	0.1076	0.29770979145450244	1.2977828362257071	-0.01275	0.3282551326834042	0.9566934253088325	0.0702	0.35455818920302706	0.930888268774646	0.1076
50	1.6713352007469655	0.6842268861796088	0.8517159079398662	0.0301	0.8003992247828754	0.8673558915493311	0.0301	0.974786939524625	0.38103515069440574	0.129	1.1184568959882366	-0.069071600406144	0.023	1.1060713395183432	-0.10761294900800056	0.2179	1.2027968008558807	-0.10958893228034654	0.1804	1.1397009441165258	-0.13412429108957002	-0.0119	0.5778304900057154	0.795982304598571	0.0301	0.6944718966538229	0.4545624095052958	0.129	0.8614296888634119	0.05045063512984832	0.023	0.9281622179249353	-0.09575799811283935	0.2179	0.860493087033332	-0.11382987688636644	0.1804	0.8939789434879205	-0.012997128522632847	-0.0119	0.45860699073612876	1.4354043017031393	0.0008	0.3749115119706384	1.6152115899381074	0.0655	0.4211188479518343	1.492867575377059	0.1076	0.6829749465224736	1.4472229738504947	-0.01275	0.9212674577576497	1.217010608553694	0.0702	1.0073474895490973	0.9744015510669403	0.1076	0.297955028463708	1.2929757580749124	-0.01275	0.3296602328283692	0.9561503229666488	0.0702	0.35070277755032914	0.9344016677769694	0.1076
51	1.7047619047619047	0.6835357318241299	0.851047443193964	0.0301	0.7978258978081573	0.8704229043303963	0.0301	0.9741028434319788	0.38097136021350847	0.129	1.1175584611355027	-0.0715067280310858	0.023	1.1078780463127154	-0.1084374737035849	0.2179	1.2040237818280133	-0.1129506851255818	0.1804	1.1385764226047748	-0.1366362283088588	-0.0119	0.5754658241964942	0.7954072853306129	0.0301	0.6967128360508131	0.4532252005863885	0.129	0.8467982130702644	0.11729496326585986	0.023	0.9248000223338957	-0.08473069396253875	0.2179	0.8551163267432433	-0.09469927249549775	0.1804	0.8748163765735023	0.070545546827796	-0.0119	0.46041220792591	1.4332916745113	0.0008	0.37554028514111404	1.6154103300330642	0.0655	0.42186852253149054	1.4919722619566034	0.1076	0.6855366087118708	1.443920961434258	-0.01275	0.9225687405106243	1.2127193319833016	0.0702	1.006362979268973	0.9731875625880949	0.1076	0.2979840362387789	1.2904972335293492	-0.01275	0.33064643430453555	0.9553607602996403	0.0702	0.34555824316946987	0.9401894146152373	0.1076
52	1.7381886087768441	0.6825083850332995	0.8525196419589041	0.0301	0.795954101437447	0.8740376204067283	0.0301	0.973557860330876	0.3804435646699782	0.129	1.1177780798152008	-0.07354500185069329	0.023	1.106473249000853	-0.11130314036030783	0.2179	1.2038481869330988	-0.11486741747230303	0.1804	1.1381211403692126	-0.13821228255318063	-0.0119	0.5732461607905145	0.7953432156297969	0.0301	0.694755975421337	0.45852960619813704	0.129	0.8085277305283475	0.22765699798458397	0.023	0.9164343076398351	-0.051276436148541826	0.2179	0.8514571951128379	-0.05352583140867692	0.1804	0.838990670249657	0.18938759281317483	-0.0119	0.46041488442532585	1.4316345013090703	0.0008	0.3757724708044349	1.6149029103881414	0.0655	0.4218271282547722	1.4907120942517076	0.1076	0.6857543235961644	1.4404565991793536	-0.01275	0.9235205064026044	1.2101819584654625	0.0702	1.0061748319370905	0.975602770347376	0.1076	0.29798666278641617	1.2899693351015882	-0.01275	0.3311476608351183	0.9539207143794357	0.0702	0.34280914294253034	0.9401421589334572	0.1076
53	1.7716153127917833	0.6818372562793493	0.8542900847014183	0.0301	0.7958331585506012	0.874020801763315	0.0301	0.9730124730479054	0.3799747028842738	0.129	1.118752073044256	-0.07319691050578936	0.023	1.1014147143892723	-0.11432945937648104	0.2179	1.2016041102497996	-0.1160705189131787	0.1804	1.1382112719263187	-0.13840123154584516	-0.0119	0.5727695370895165	0.7950340242559351	0.0301	0.6907151510171464	0.46935665578969776	0.129	0.7633470331241141	0.3460129935935707	0.023	0.9072911116929283	0.002640437324916234	0.2179	0.8477403166883675	0.0067487980493319	0.1804	0.8020593046920772	0.295351245460351	-0.0119	0.45811089722844833	1.430024556405566	0.0008	0.37573979706672506	1.6112514888664766	0.0655	0.4212163748310566	1.4901174424102301	0.1076	0.6836240196749075	1.436873309765623	-0.01275	0.9236953448140459	1.208562090036112	0.0702	1.005881585136674	0.9773411238001406	0.1076	0.29890153815066345	1.2890819758935732	-0.01275	0.331819947284454	0.9522057502183908	0.0702	0.34438243123309403	0.928269877128538	0.1076
